<?xml version="1.0" encoding="utf-8"?>
<!-- Generator: Adobe Illustrator 19.2.1, SVG Export Plug-In . SVG Version: 6.00 Build 0)  -->
<svg version="1.1" id="Layer_1" xmlns="http://www.w3.org/2000/svg" xmlns:xlink="http://www.w3.org/1999/xlink" x="0px" y="0px"
	 viewBox="0 0 121 50.5" style="enable-background:new 0 0 121 50.5;" xml:space="preserve">
<style type="text/css">
	.st0{fill:#FFFFFF;}
</style>
<g>
	<path class="st0" d="M66.4,41.3c-2.1-0.9-3.8-2.1-5.3-3.7s-2.6-3.4-3.4-5.6c-0.8-2.1-1.2-4.5-1.2-6.9l-0.1-7.4l12.3-0.1h0.5v-4.7
		H56.4L56.3,3h-4.7v22.1c0,3.2,0.5,6.2,1.6,8.8s2.6,5,4.5,7s4.2,3.5,6.9,4.6c2.7,1.1,5.6,1.6,8.8,1.6h0.5v-4.5h-0.5
		C70.8,42.6,68.4,42.2,66.4,41.3z"/>
	<path class="st0" d="M90,41.3c-2.1-0.9-3.8-2.1-5.3-3.7s-2.6-3.4-3.4-5.6c-0.8-2.1-1.2-4.5-1.2-6.9L80,3h-4.7v22.1
		c0,3.2,0.5,6.2,1.6,8.8s2.6,5,4.5,7s4.2,3.5,6.9,4.6c2.7,1.1,5.6,1.6,8.8,1.6h0.5v-4.5H97C94.4,42.6,92.1,42.2,90,41.3z"/>
	<path class="st0" d="M118.5,42.6c-2.6,0-4.9-0.5-7-1.3c-2.1-0.9-3.8-2.1-5.3-3.7s-2.6-3.4-3.4-5.6c-0.8-2.1-1.2-4.5-1.2-6.9
		l-0.2-12.4h-4.7v12.4c0,3.2,0.5,6.2,1.6,8.8s2.6,5,4.5,7s4.2,3.5,6.9,4.6s5.6,1.6,8.8,1.6h0.5v-4.5H118.5z"/>
	<circle class="st0" cx="99" cy="5.8" r="2.7"/>
	<path class="st0" d="M40.7,9.3c-1.9-2-4.2-3.5-6.9-4.6S28.2,3,25,3s-6.1,0.6-8.8,1.7c-2.7,1.1-5,2.7-6.9,4.6c-1.9,2-3.4,4.3-4.5,7
		s-1.6,5.6-1.6,8.8s0.5,6.1,1.6,8.8c1.1,2.7,2.6,5,4.5,7s4.2,3.5,6.9,4.6s5.6,1.6,8.8,1.6s6.1-0.5,8.8-1.6s5-2.6,6.9-4.6
		c1.9-1.9,3.4-4.3,4.5-7c1.1-2.7,1.6-5.7,1.6-8.8s-0.5-6.1-1.6-8.8S42.6,11.3,40.7,9.3z M25.1,42.7c-2.6,0-4.9-0.5-7-1.3
		c-2.1-0.9-3.8-2.1-5.3-3.7s-2.6-3.4-3.4-5.6c-0.8-2.1-1.2-4.5-1.2-6.9s0.4-4.8,1.2-6.9c0.8-2.1,1.9-4,3.4-5.6
		c1.4-1.6,3.2-2.8,5.3-3.7s4.4-1.3,7-1.3s4.9,0.5,7,1.3c2.1,0.9,3.8,2.1,5.3,3.7c1.5,1.6,2.6,3.4,3.4,5.6c0.8,2.1,1.2,4.5,1.2,6.9
		s-0.4,4.8-1.2,6.9c-0.8,2.1-1.9,4-3.4,5.6c-1.4,1.6-3.2,2.8-5.3,3.7C30,42.2,27.7,42.7,25.1,42.7z"/>
</g>
</svg>
