<?xml version="1.0" encoding="utf-8"?>
<!-- Generator: Adobe Illustrator 19.2.1, SVG Export Plug-In . SVG Version: 6.00 Build 0)  -->
<svg version="1.1" id="Layer_1" xmlns="http://www.w3.org/2000/svg" xmlns:xlink="http://www.w3.org/1999/xlink" x="0px" y="0px"
	 viewBox="0 0 224 87" style="enable-background:new 0 0 224 87;" xml:space="preserve">
<style type="text/css">
	.st0{fill:#FBBB1E;}
	.st1{fill:#8ABF45;}
	.st2{fill:#E84828;}
	.st3{fill:#C1CBDB;}
</style>
<g>
	<path class="st0" d="M121.6,74.6c-3.9-1.7-7.3-4-10-7c-2.7-2.9-4.9-6.5-6.4-10.5S103,48.7,103,44l-0.1-14l23.2-0.2h1v-8.9h-24.3
		V2.3h-8.9V44c0,6,1,11.6,3,16.7c2,5.1,4.8,9.5,8.4,13.2c3.6,3.7,7.9,6.6,12.9,8.6s10.6,3.1,16.6,3.1h1v-8.5h-1
		C130,77.1,125.6,76.3,121.6,74.6z"/>
	<path class="st1" d="M166.3,74.6c-3.9-1.7-7.3-4-10-7c-2.7-2.9-4.9-6.5-6.4-10.5s-2.2-8.4-2.2-13.1l-0.3-41.7h-8.9V44
		c0,6,1,11.6,3,16.7s4.8,9.5,8.4,13.2c3.6,3.7,7.9,6.6,12.9,8.6s10.6,3.1,16.6,3.1h1v-8.5h-1C174.6,77.1,170.2,76.3,166.3,74.6z"/>
	<path class="st2" d="M220,77.1c-4.9,0-9.3-0.9-13.2-2.5c-3.9-1.7-7.3-4-10-7c-2.7-2.9-4.9-6.5-6.4-10.5s-2.2-8.4-2.2-13.1
		l-0.3-23.3H179V44c0,6,1,11.6,3,16.7s4.8,9.5,8.4,13.2c3.6,3.7,7.9,6.6,12.9,8.6s10.6,3.1,16.6,3.1h1v-8.5H220z"/>
	<path class="st2" d="M183.2,12.7c2.9,0,5.2-2.3,5.2-5.2s-2.3-5.2-5.2-5.2S178,4.6,178,7.5C178,10.4,180.3,12.7,183.2,12.7z"/>
	<path class="st3" d="M73.3,14.3c-3.6-3.7-7.9-6.6-12.9-8.7c-5-2.1-10.6-3.1-16.6-3.1S32.2,3.6,27.2,5.6c-5,2.1-9.4,5-12.9,8.7
		c-3.6,3.7-6.4,8.1-8.4,13.1c-2,5.1-3,10.7-3,16.6c0,6,1,11.6,3,16.7s4.8,9.5,8.4,13.2c3.6,3.7,7.9,6.6,12.9,8.6s10.6,3.1,16.6,3.1
		s11.6-1,16.6-3.1c5-2,9.4-4.9,12.9-8.6c3.6-3.7,6.4-8.1,8.4-13.2s3-10.7,3-16.7s-1-11.6-3-16.6C79.7,22.4,76.9,18,73.3,14.3z
		 M43.8,77.2c-4.9,0-9.3-0.9-13.2-2.5c-3.9-1.7-7.3-4-10-7s-4.9-6.5-6.4-10.5S12,48.8,12,44.1S12.7,35,14.2,31s3.6-7.5,6.4-10.5
		c2.7-2.9,6.1-5.3,10-7S39,11,43.8,11s9.3,0.9,13.2,2.5c3.9,1.7,7.3,4,10,7S71.9,27,73.4,31s2.2,8.4,2.2,13.1s-0.7,9.1-2.2,13.1
		s-3.6,7.5-6.4,10.5c-2.7,2.9-6.1,5.3-10,7C53.1,76.3,48.7,77.2,43.8,77.2z"/>
</g>
</svg>
